<?xml version="1.0" standalone="no"?>
<!DOCTYPE svg PUBLIC "-//W3C//DTD SVG 1.0//EN" "http://www.w3.org/TR/2001/REC-SVG-20010904/DTD/svg10.dtd">
<svg xmlns="http://www.w3.org/2000/svg" xmlns:xlink="http://www.w3.org/1999/xlink" id="body_1" width="84" height="65">

<g transform="matrix(0.12923077 0 0 0.13 0 0)">
	<path  d="M620.39 364.82C 619.85376 357.5523 618.61334 350.338 615.3614 343.544C 605.8828 323.741 581.3984 314.204 562.3354 324.26C 547.0024 332.3485 539.7724 353.591 548.7574 369.409C 555.6304 381.508 571.8294 387.64398 584.3794 379.637C 588.8122 376.809 592.0137 372.3577 593.37317 367.35098C 594.73267 362.3447 594.0577 356.55298 590.43396 351.94998C 588.1976 349.10928 584.98663 347.18457 581.3226 346.542C 577.65857 345.89935 573.1518 346.94586 570.4476 350.53918C 568.6647 352.9084 568.5376 355.08408 569.03674 357.6519C 569.2864 358.9358 569.81793 360.4918 571.38806 361.64908C 572.95825 362.80637 575.68066 363.5915 576.9725 362.2369C 578.07935 361.0762 576.2977 359.0839 576.2422 357.48102C 576.20337 356.64944 576.165 355.74933 576.5022 355.00653C 577.399 353.86023 578.3515 353.66452 579.9704 353.94843C 581.6252 354.23865 583.6178 355.40262 584.5555 356.59363L584.5555 356.59363L584.5555 356.65244C 586.5779 359.25104 586.9272 362.24673 586.08386 365.35233C 585.2674 368.35892 583.22705 371.27133 580.61707 373.05292L580.61707 373.05292L580.3232 373.28806C 571.77795 378.73965 561.8392 373.9912 556.93115 365.35144C 550.21497 353.52844 555.41986 339.06943 567.2161 332.84644C 582.2941 324.89273 602.96014 334.29742 607.5761 349.93143C 612.1421 365.39542 610.44763 380.86942 607.85 387.44244L607.85 387.44244L618.459 387.51544C 621.0169 375.42645 620.3877 372.48044 620.3877 364.81946L620.3877 364.81946L620.39 364.82z" stroke="none"  fill="#000000" fill-rule="nonzero" />
	<path  d="M182.52 260.66C 164.852 247.06601 156.423 224.96301 152.99701 203.582C 151.53252 194.1869 151.02242 184.513 152.85547 175.13C 138.75546 175.42894 127.03047 184.4658 116.42247 192.793C 97.81947 208.323 81.19447 226.617 69.20747 247.76C 65.57537 253.93509 74.55097 252.39369 78.01437 253.68329C 108.74338 259.52548 140.04637 265.43628 171.45238 262.5997C 175.17607 262.17517 178.88037 261.5543 182.52138 260.6594L182.52138 260.6594L182.52 260.66z" stroke="none"  fill="#FFFFFF" fill-rule="nonzero" />
	<path  d="M366.06 210.87C 355.244 197.047 339.537 188.054 323.725 181.049C 311.247 175.6879 298.006 171.854 284.418 170.916C 280.8174 170.42432 277.2168 169.93262 273.616 169.4409C 279.5022 182.8409 282.9502 198.5169 277.56628 212.66391C 271.78967 227.90192 260.4213 240.03992 252.57228 254.15392C 247.97038 259.37973 257.89398 256.9218 261.03577 257.6893C 286.48676 257.6646 312.42078 253.2155 335.29077 241.6833C 348.34378 234.9284 360.46576 224.8203 366.05978 210.8703L366.05978 210.8703L366.06 210.87z" stroke="none"  fill="#FFFFFF" fill-rule="nonzero" />
	<path  d="M158.66 157C 149.2628 169.29002 144.1867 184.33905 144.22 199.81C 144.22 224.90254 157.60672 248.08902 179.33751 260.63528C 201.0683 273.18158 227.84172 273.18158 249.57251 260.63528C 271.30328 248.08902 284.69 224.90254 284.69 199.81C 284.76923 184.35762 279.75 169.31042 270.41 157L270.41 157L158.66 157z" stroke="none"  fill="#000000" fill-rule="nonzero" />
	<path  d="M140.86 465.53C 134.1267 465.53 132.1463 460.0838 128.679 439.631C 126.2311 424.85703 121.572205 411.168 118.177 396.588C 115.155106 383.471 112.5345 376.256 108.5076 369.97C 101.955 359.741 102.2065 349.049 109.22451 339.489C 115.55451 330.8658 116.05151 328.368 115.77161 306.588C 115.63377 295.863 115.20757 285.302 114.82449 283.12003C 113.943726 278.1021 110.209694 275.42773 100.920494 273.16144C 92.43779 271.09195 84.39549 270.86813 58.953495 271.99335C 40.809494 272.7958 38.496494 272.71658 36.203495 271.21432C 30.576496 267.5273 33.250793 262.37384 48.464493 247.58832C 64.154495 232.33932 72.34049 222.90031 87.2755 202.83832C 114.1145 166.78531 118.2025 162.00832 144.77649 153.64932C 164.35149 147.49112 171.46748 144.63742 206.8075 143.58932C 231.46149 142.85843 245.5745 146.18562 252.16449 146.93593C 277.38348 149.80753 318.4115 161.81293 344.09747 173.01892C 357.67847 178.94382 358.13947 179.19122 374.21246 189.17093C 386.19345 196.61003 392.94547 199.62993 409.65247 204.20493C 444.53845 213.75792 466.40546 211.96323 501.65247 214.58293C 510.91037 215.27101 550.95044 218.09782 576.15247 219.06133C 606.8415 220.23453 611.9875 217.02373 614.57544 219.61127C 616.60693 221.64276 615.13904 227.79277 615.17786 233.91727C 615.20154 237.65506 614.9939 241.58147 614.69214 245.51927C 606.4998 244.09528 606.65686 244.15167 588.15216 242.60277C 586.4714 242.46208 571.43414 240.93327 543.65216 238.43018C 531.78516 237.36098 473.32617 235.58537 438.15216 234.50537C 421.15515 233.98347 403.79517 229.78258 387.15216 233.27068C 381.38977 234.47827 389.53915 232.15457 371.15216 240.75188C 334.83917 254.80287 315.29916 264.54187 266.65216 273.58188C 235.87816 278.102 233.44415 278.55637 230.27615 280.87277C 228.53055 282.14917 228.61415 282.48987 231.95285 287.70908C 235.51704 293.28076 246.22784 303.51907 261.65186 316.09808C 313.27084 359.66208 376.70184 393.52908 424.54187 414.69608C 446.76288 424.20828 462.09186 429.35107 474.64987 431.50708C 536.5419 445.16107 608.90985 422.01328 610.7599 374.5481C 610.8088 373.29208 611.25916 368.5471 610.6201 362.4691C 610.17474 358.2334 609.7239 355.1475 608.3269 351.37408C 604.3474 340.62408 595.9139 330.96707 579.6549 329.61908C 567.90894 329.64108 559.2799 335.77518 555.7049 345.7891C 551.1427 358.5691 557.0234 372.8601 569.7279 375.3541C 576.3682 376.6579 580.9499 374.8285 583.9989 370.8862C 587.3413 366.5641 587.7189 358.8602 585.3548 355.2522C 583.0791 351.779 578.1089 349.9768 574.5308 351.3274C 570.91833 352.69098 569.53754 351.69293 573.877 348.1435C 574.2574 347.89484 574.65546 347.6849 575.068 347.51215C 581.7355 344.72034 592.195 351.63474 592.981 361.64716C 593.69293 373.14215 585.2765 381.92615 573.732 382.58716C 567.1661 382.9629 559.138 380.62067 553.706 374.78366C 540.281 360.35565 544.5348 339.89865 556.6646 329.02167C 561.2777 324.88507 564.4181 322.96338 570.7296 321.54437C 590.0996 317.18896 608.4196 326.05777 616.2576 345.84537C 619.82214 354.84457 620.02515 362.04636 620.10913 369.06638C 620.81354 427.96136 554.3671 456.26837 488.15912 451.58337C 460.15012 449.17108 441.9301 444.77386 407.66412 430.66837C 371.0841 418.57837 264.22412 362.34836 199.70412 310.33838C 180.85812 295.0214 169.19312 287.5254 166.64911 289.0984C 166.03326 289.479 165.65923 301.0904 165.6569 319.9004C 165.65291 348.6584 165.55501 350.25238 163.5852 353.4834C 160.30591 358.8625 158.6502 371.2084 157.60301 398.0914C 155.9703 440.0054 154.92801 459.0064 154.15912 460.8694C 152.76282 464.25238 147.12852 465.53357 140.87012 465.53357L140.87012 465.53357L140.86 465.53zM362.47998 213.26C 362.898 211.0893 357.87558 204.6357 351.249 200.18C 340.853 193.19069 328.86398 188.668 317.15698 184.21999C 245.22299 160.70198 172.07698 164.15498 143.12698 179.25798C 132.53398 184.40918 129.00098 187.03497 120.31398 194.83998C 116.18488 198.55019 110.72008 204.57048 108.16998 208.21898C 103.03698 215.56178 98.15598 221.55798 89.15598 231.58098C 79.853386 241.93997 74.65598 248.35498 74.65598 249.47798C 74.65598 251.05008 82.552185 252.62679 92.15598 253.05888C 173.30598 263.3509 322.59598 267.2569 362.47598 213.25989zM586.66 143.909C 570.102 143.40897 544.193 141.8932 523.16 139.0136C 503.63498 136.3404 484.11298 132.9466 465.15997 127.54659C 447.17798 122.42359 430.03598 114.696594 412.65997 107.792595C 404.93567 104.7232 397.33997 101.339294 389.65997 98.1608C 381.34097 94.717896 373.12997 90.988495 364.65997 87.9368C 349.13696 82.343994 333.67398 75.9908 317.42096 73.1478C 275.43295 65.8014 232.15996 64.3685 189.66095 67.6492C 166.10695 69.4674 142.96594 75.3616 120.16095 81.5272C 102.29795 86.3565 85.14195 93.4992 67.66095 99.5682C 62.59195 101.3292 57.62195 106.4092 52.483948 104.8892C 47.087948 103.2892 41.75395 97.1402 42.166946 91.5282C 42.600945 85.644196 50.001945 82.5142 54.919945 79.256195C 71.74294 68.1102 91.417946 61.771194 110.58095 55.453194C 129.79994 49.118294 149.50395 43.326195 169.65295 41.452194C 223.97896 36.398994 279.74295 38.022095 333.15295 49.179092C 361.44296 55.088894 387.09796 69.938095 414.15295 80.09909C 445.58997 91.90509 475.91296 107.54309 508.65295 115.00809C 541.69794 122.54208 592.39795 124.63728 609.8729 124.59919C 616.4154 124.58489 616.6414 124.66999 618.2324 127.74669C 620.0839 131.3272 621.35803 142.0427 620.025 142.82368C 618.68555 143.60786 598.432 144.26898 586.64905 143.91309z" stroke="#000000" stroke-width="1"  fill="#000000" fill-rule="nonzero" />
</g>
</svg>
