<?xml version="1.0" encoding="UTF-8"?>
<svg xmlns="http://www.w3.org/2000/svg" xmlns:xlink="http://www.w3.org/1999/xlink" width="40px" height="31px" viewBox="0 0 40 31" version="1.1">
<g id="surface1">
<path style=" stroke:none;fill-rule:nonzero;fill:rgb(100%,100%,100%);fill-opacity:1;" d="M 37.902344 22.617188 C 37.867188 22.167969 37.796875 21.71875 37.597656 21.300781 C 37.023438 20.070312 35.539062 19.480469 34.382812 20.105469 C 33.453125 20.605469 33.019531 21.921875 33.558594 22.90625 C 33.976562 23.652344 34.960938 24.035156 35.722656 23.535156 C 35.988281 23.363281 36.183594 23.085938 36.265625 22.777344 C 36.347656 22.464844 36.308594 22.105469 36.089844 21.824219 C 35.953125 21.644531 35.757812 21.523438 35.535156 21.484375 C 35.3125 21.445312 35.039062 21.511719 34.875 21.734375 C 34.769531 21.882812 34.757812 22.015625 34.792969 22.175781 C 34.804688 22.253906 34.839844 22.351562 34.933594 22.421875 C 35.027344 22.492188 35.195312 22.542969 35.269531 22.457031 C 35.335938 22.386719 35.230469 22.261719 35.226562 22.164062 C 35.222656 22.113281 35.222656 22.058594 35.242188 22.007812 C 35.296875 21.941406 35.355469 21.929688 35.453125 21.945312 C 35.554688 21.960938 35.675781 22.035156 35.730469 22.109375 L 35.730469 22.113281 C 35.855469 22.273438 35.875 22.460938 35.824219 22.652344 C 35.773438 22.839844 35.648438 23.019531 35.492188 23.128906 L 35.472656 23.144531 C 34.957031 23.480469 34.355469 23.1875 34.054688 22.652344 C 33.648438 21.917969 33.964844 21.023438 34.679688 20.636719 C 35.59375 20.140625 36.847656 20.726562 37.125 21.695312 C 37.402344 22.65625 37.300781 23.613281 37.144531 24.019531 L 37.785156 24.023438 C 37.941406 23.277344 37.902344 23.09375 37.902344 22.617188 Z M 37.902344 22.617188 "/>
<path style=" stroke:none;fill-rule:nonzero;fill:rgb(100%,100%,100%);fill-opacity:1;" d="M 9.917969 9.734375 C 9.347656 10.496094 9.042969 11.429688 9.046875 12.386719 C 9.046875 13.945312 9.855469 15.382812 11.171875 16.160156 C 12.488281 16.9375 14.113281 16.9375 15.425781 16.160156 C 16.746094 15.382812 17.554688 13.945312 17.554688 12.386719 C 17.5625 11.429688 17.253906 10.5 16.691406 9.734375 Z M 9.917969 9.734375 "/>
<path style=" stroke:none;fill-rule:nonzero;fill:rgb(100%,100%,100%);fill-opacity:1;" d="M 8.839844 28.863281 C 8.433594 28.863281 8.3125 28.527344 8.101562 27.257812 C 7.953125 26.339844 7.671875 25.492188 7.464844 24.589844 C 7.28125 23.773438 7.121094 23.328125 6.878906 22.9375 C 6.480469 22.304688 6.5 21.644531 6.921875 21.046875 C 7.304688 20.511719 7.335938 20.359375 7.320312 19.007812 C 7.3125 18.34375 7.285156 17.6875 7.261719 17.554688 C 7.210938 17.242188 6.980469 17.078125 6.417969 16.933594 C 5.90625 16.804688 5.417969 16.796875 3.875 16.863281 C 2.777344 16.914062 2.636719 16.910156 2.496094 16.8125 C 2.15625 16.585938 2.316406 16.265625 3.242188 15.347656 C 4.191406 14.40625 4.6875 13.820312 5.59375 12.574219 C 7.21875 10.339844 7.464844 10.042969 9.078125 9.527344 C 10.265625 9.144531 10.695312 8.96875 12.835938 8.902344 C 14.332031 8.859375 15.1875 9.0625 15.585938 9.113281 C 17.113281 9.289062 19.601562 10.03125 21.15625 10.726562 C 21.980469 11.09375 22.007812 11.109375 22.980469 11.726562 C 23.707031 12.191406 24.117188 12.378906 25.128906 12.660156 C 27.242188 13.253906 28.570312 13.140625 30.707031 13.304688 C 31.265625 13.347656 33.695312 13.523438 35.21875 13.582031 C 37.082031 13.652344 37.390625 13.457031 37.550781 13.617188 C 37.675781 13.742188 37.582031 14.125 37.585938 14.5 C 37.585938 14.734375 37.574219 14.980469 37.558594 15.222656 C 37.058594 15.132812 37.070312 15.136719 35.949219 15.042969 C 35.847656 15.035156 34.933594 14.9375 33.253906 14.785156 C 32.535156 14.714844 28.992188 14.605469 26.859375 14.539062 C 25.828125 14.503906 24.773438 14.246094 23.765625 14.460938 C 23.417969 14.539062 23.914062 14.390625 22.796875 14.925781 C 20.597656 15.796875 19.414062 16.402344 16.464844 16.960938 C 14.597656 17.242188 14.453125 17.269531 14.257812 17.414062 C 14.152344 17.492188 14.160156 17.515625 14.359375 17.835938 C 14.578125 18.183594 15.226562 18.816406 16.160156 19.597656 C 19.289062 22.300781 23.132812 24.398438 26.035156 25.710938 C 27.378906 26.300781 28.308594 26.617188 29.066406 26.753906 C 32.820312 27.597656 37.207031 26.164062 37.320312 23.21875 C 37.324219 23.144531 37.347656 22.851562 37.3125 22.472656 C 37.28125 22.210938 37.257812 22.019531 37.171875 21.785156 C 36.929688 21.117188 36.417969 20.519531 35.433594 20.433594 C 34.722656 20.4375 34.199219 20.816406 33.980469 21.4375 C 33.707031 22.230469 34.0625 23.117188 34.832031 23.273438 C 35.234375 23.351562 35.511719 23.238281 35.695312 22.992188 C 35.902344 22.726562 35.921875 22.25 35.78125 22.023438 C 35.640625 21.8125 35.339844 21.699219 35.125 21.78125 C 34.90625 21.867188 34.820312 21.804688 35.085938 21.585938 C 35.105469 21.570312 35.132812 21.554688 35.15625 21.546875 C 35.558594 21.371094 36.195312 21.800781 36.242188 22.421875 C 36.285156 23.136719 35.773438 23.679688 35.074219 23.71875 C 34.675781 23.746094 34.191406 23.597656 33.859375 23.234375 C 33.046875 22.34375 33.304688 21.074219 34.039062 20.398438 C 34.320312 20.140625 34.507812 20.023438 34.894531 19.9375 C 36.066406 19.664062 37.175781 20.214844 37.652344 21.441406 C 37.867188 22 37.878906 22.445312 37.886719 22.882812 C 37.925781 26.535156 33.902344 28.289062 29.890625 28 C 28.191406 27.847656 27.085938 27.578125 25.007812 26.703125 C 22.792969 25.949219 16.316406 22.464844 12.40625 19.238281 C 11.265625 18.292969 10.558594 17.828125 10.40625 17.925781 C 10.363281 17.949219 10.34375 18.667969 10.34375 19.832031 C 10.34375 21.617188 10.339844 21.714844 10.21875 21.914062 C 10.019531 22.25 9.917969 23.015625 9.855469 24.679688 C 9.753906 27.277344 9.695312 28.457031 9.644531 28.574219 C 9.5625 28.785156 9.222656 28.863281 8.839844 28.863281 Z M 22.273438 13.222656 C 22.296875 13.089844 21.992188 12.6875 21.589844 12.410156 C 20.960938 11.976562 20.234375 11.699219 19.523438 11.421875 C 15.164062 9.960938 10.730469 10.179688 8.980469 11.113281 C 8.335938 11.433594 8.121094 11.59375 7.59375 12.078125 C 7.34375 12.3125 7.011719 12.683594 6.859375 12.910156 C 6.546875 13.363281 6.253906 13.734375 5.707031 14.359375 C 5.144531 15 4.828125 15.398438 4.828125 15.46875 C 4.828125 15.566406 5.308594 15.660156 5.886719 15.691406 C 10.808594 16.328125 19.851562 16.570312 22.273438 13.222656 Z M 35.855469 8.921875 C 34.851562 8.890625 33.285156 8.796875 32.011719 8.621094 C 30.828125 8.453125 29.644531 8.242188 28.492188 7.90625 C 27.40625 7.589844 26.363281 7.113281 25.3125 6.683594 C 24.84375 6.492188 24.386719 6.28125 23.921875 6.085938 C 23.414062 5.871094 22.917969 5.640625 22.402344 5.453125 C 21.460938 5.105469 20.523438 4.710938 19.542969 4.535156 C 16.996094 4.082031 14.371094 3.992188 11.796875 4.195312 C 10.371094 4.308594 8.96875 4.671875 7.585938 5.054688 C 6.503906 5.355469 5.460938 5.796875 4.402344 6.171875 C 4.09375 6.28125 3.792969 6.597656 3.484375 6.503906 C 3.15625 6.402344 2.835938 6.023438 2.859375 5.671875 C 2.886719 5.308594 3.332031 5.117188 3.628906 4.914062 C 4.652344 4.222656 5.84375 3.832031 7.003906 3.4375 C 8.167969 3.046875 9.363281 2.6875 10.582031 2.570312 C 13.878906 2.257812 17.253906 2.355469 20.496094 3.050781 C 22.210938 3.417969 23.761719 4.335938 25.402344 4.964844 C 27.308594 5.699219 29.144531 6.667969 31.128906 7.128906 C 33.136719 7.597656 36.207031 7.726562 37.265625 7.722656 C 37.660156 7.722656 37.675781 7.726562 37.773438 7.917969 C 37.882812 8.144531 37.960938 8.808594 37.878906 8.855469 C 37.800781 8.902344 36.570312 8.945312 35.855469 8.925781 Z M 35.855469 8.921875 "/>
</g>
</svg>
